name Walk5.mot
datacolumns 19
datarows 22
range 0.63100000 0.65200000
endheader

                time	   L_ground_force_vx	   L_ground_force_vy	   L_ground_force_vz	   L_ground_force_px	   L_ground_force_py	   L_ground_force_pz	   R_ground_force_vx	   R_ground_force_vy	   R_ground_force_vz	   R_ground_force_px	   R_ground_force_py	   R_ground_force_pz	   L_ground_torque_x	   L_ground_torque_y	   L_ground_torque_z	   R_ground_torque_x	   R_ground_torque_y	   R_ground_torque_z	
          0.63100000	         -0.59881054	         63.26283141	          0.73662824	         -0.00144940	          0.00000000	         -0.00016632	         -0.00000000	          0.00000000	          0.00000000	          0.00000000	          0.00000000	          0.00000000	          0.00000000	          0.00808568	          0.00000000	          0.00000000	         -0.00000000	          0.00000000	
          0.63200000	         -1.30569930	         70.12158247	          0.82744457	         -0.02298927	          0.00000000	         -0.00183357	         -0.00000000	          0.00000000	          0.00000000	          0.00000000	          0.00000000	          0.00000000	          0.00000000	          0.01182290	          0.00000000	          0.00000000	         -0.00000000	          0.00000000	
          0.63300000	         -2.04321374	         77.16837282	          0.91349441	         -0.04446223	          0.00000000	         -0.00349624	         -0.00000000	          0.00000000	          0.00000000	          0.00000000	          0.00000000	          0.00000000	          0.00000000	          0.01571298	          0.00000000	          0.00000000	         -0.00000000	          0.00000000	
          0.63400000	         -2.81170090	         84.39462763	          0.99416663	         -0.06580538	          0.00000000	         -0.00514946	         -0.00000000	          0.00000000	          0.00000000	          0.00000000	          0.00000000	          0.00000000	          0.00000000	          0.01975690	          0.00000000	          0.00000000	         -0.00000000	          0.00000000	
          0.63500000	         -3.61147871	         91.79057701	          1.06883656	         -0.08695557	          0.00000000	         -0.00678837	         -0.00000000	          0.00000000	          0.00000000	          0.00000000	          0.00000000	          0.00000000	          0.00000000	          0.02395541	          0.00000000	          0.00000000	         -0.00000000	          0.00000000	
          0.63600000	         -4.44283816	         99.34519787	          1.13686805	         -0.10785102	          0.00000000	         -0.00840819	         -0.00000000	          0.00000000	          0.00000000	          0.00000000	          0.00000000	          0.00000000	          0.00000000	          0.02830895	          0.00000000	          0.00000000	         -0.00000000	          0.00000000	
          0.63700000	         -5.30605958	        107.04622814	          1.19762027	         -0.12843382	          0.00000000	         -0.01000447	         -0.00000000	          0.00000000	          0.00000000	          0.00000000	          0.00000000	          0.00000000	          0.00000000	          0.03281780	          0.00000000	          0.00000000	          0.00000000	          0.00000000	
          0.63800000	         -6.20143548	        114.88025475	          1.25045931	         -0.14865160	          0.00000000	         -0.01157321	         -0.00000000	          0.00000000	          0.00000000	          0.00000000	          0.00000000	          0.00000000	          0.00000000	          0.03748208	          0.00000000	          0.00000000	          0.00000000	          0.00000000	
          0.63900000	         -7.12929183	        122.83286784	          1.29477448	         -0.16845770	          0.00000000	         -0.01311082	         -0.00000000	          0.00000000	          0.00000000	          0.00000000	          0.00000000	          0.00000000	          0.00000000	          0.04230206	          0.00000000	          0.00000000	          0.00000000	          0.00000000	
          0.64000000	         -8.09000490	        130.88887952	          1.32999987	         -0.18781089	          0.00000000	         -0.01461415	         -0.00000000	          0.00000000	          0.00000000	          0.00000000	          0.00000000	          0.00000000	          0.00000000	          0.04727832	          0.00000000	          0.00000000	          0.00000000	          0.00000000	
          0.64100000	         -9.08401046	        139.03259788	          1.35564104	         -0.20667514	          0.00000000	         -0.01608046	         -0.00000000	          0.00000000	          0.00000000	          0.00000000	          0.00000000	          0.00000000	          0.00000000	          0.05241205	          0.00000000	          0.00000000	          0.00000000	          0.00000000	
          0.64200000	        -10.11180249	        147.24813336	          1.37130566	         -0.22501924	          0.00000000	         -0.01750737	         -0.00000000	          0.00000000	          0.00000000	          0.00000000	          0.00000000	          0.00000000	          0.00000000	          0.05770526	          0.00000000	          0.00000000	          0.00000000	          0.00000000	
          0.64300000	        -11.17392028	        155.51970639	          1.37673539	         -0.24281658	          0.00000000	         -0.01889289	         -0.00000000	          0.00000000	          0.00000000	          0.00000000	          0.00000000	          0.00000000	          0.00000000	          0.06316099	          0.00000000	          0.00000000	          0.00000000	          0.00000000	
          0.64400000	        -12.27092498	        163.83192273	          1.37183584	         -0.26004482	          0.00000000	         -0.02023536	         -0.00000000	          0.00000000	          0.00000000	          0.00000000	          0.00000000	          0.00000000	          0.00000000	          0.06878347	          0.00000000	          0.00000000	          0.00000000	          0.00000000	
          0.64500000	        -13.40336815	        172.16999021	          1.35670135	         -0.27668563	          0.00000000	         -0.02153347	         -0.00000000	          0.00000000	          0.00000000	         -0.00000000	          0.00000000	         -0.00000000	          0.00000000	          0.07457827	          0.00000000	          0.00000000	          0.00000000	          0.00000000	
          0.64600000	        -14.57175600	        180.51986346	          1.33163199	         -0.29272439	          0.00000000	         -0.02278623	         -0.00000000	          0.00000000	          0.00000000	         -0.00000000	          0.00000000	         -0.00000000	          0.00000000	          0.08055246	          0.00000000	          0.00000000	          0.00000000	          0.00000000	
          0.64700000	        -15.77651291	        188.86831734	          1.29714136	         -0.30814998	          0.00000000	         -0.02399290	         -0.00000000	          0.00000000	          0.00000000	         -0.00000000	          0.00000000	         -0.00000000	          0.00000000	          0.08671472	          0.00000000	          0.00000000	          0.00000000	          0.00000000	
          0.64800000	        -17.01794719	        197.20296040	          1.25395476	         -0.32295445	          0.00000000	         -0.02515304	         -0.00000000	          0.00000000	          0.00000000	         -0.00000000	          0.00000000	         -0.00000000	          0.00000000	          0.09307523	          0.00000000	          0.00000000	          0.00000000	          0.00000000	
          0.64900000	        -18.29622090	        205.51220572	          1.20299829	         -0.33713287	          0.00000000	         -0.02626643	         -0.00000000	          0.00000000	          0.00000000	         -0.00000000	          0.00000000	         -0.00000000	          0.00000000	          0.09964533	          0.00000000	          0.00000000	          0.00000000	          0.00000000	
          0.65000000	        -19.61132477	        213.78521741	          1.14538058	         -0.35068303	          0.00000000	         -0.02733310	         -0.00000000	          0.00000000	          0.00000000	         -0.00000000	          0.00000000	         -0.00000000	          0.00000000	          0.10643678	          0.00000000	          0.00000000	          0.00000000	          0.00000000	
          0.65100000	        -20.96305839	        222.01184987	          1.08236886	         -0.36360523	          0.00000000	         -0.02835325	         -0.00000000	          0.00000000	          0.00000000	         -0.00000000	          0.00000000	         -0.00000000	          0.00000000	          0.11346076	          0.00000000	          0.00000000	          0.00000000	          0.00000000	
          0.65200000	        -22.35101582	        230.18259270	          1.01536165	         -0.37590211	          0.00000000	         -0.02932726	         -0.00000000	          0.00000000	          0.00000000	         -0.00000000	          0.00000000	         -0.00000000	          0.00000000	          0.12072702	          0.00000000	          0.00000000	          0.00000000	          0.00000000	
